[Header]
FileType HTR
DataType HTRS
FileVersion 1
NumSegments 22
NumFrames 8
DataFrameRate 24
EulerRotationOrder ZYX
CalibrationUnits mm
RotationUnits Degrees
GlobalAxisofGravity Y
BoneLengthAxis Y
ScaleFactor 1.0
[SegmentNames&Hierarchy]
reference	GLOBAL
Hips	reference
Spine	Hips
Spine1	Spine
Neck	Spine1
Head	Neck
LeftShoulder	Spine1
LeftArm	LeftShoulder
LeftForeArm	LeftArm
LeftHand	LeftForeArm
RightShoulder	Spine1
RightArm	RightShoulder
RightForeArm	RightArm
RightHand	RightForeArm
LeftUpLeg	Hips
LeftLeg	LeftUpLeg
LeftFoot	LeftLeg
LeftToeBase	LeftFoot
RightUpLeg	Hips
RightLeg	RightUpLeg
RightFoot	RightLeg
RightToeBase	RightFoot
[BasePosition]
reference	0	0	0	0	0	0	1
Hips	0	0	0	0	0	0	1
Spine	0	0	0	0	-0	90	1
Spine1	0	0	0	0	0	0	1
Neck	0	0	0	-7.352327771	-7.352327771	90	1
Head	0	0	0	0	-0	90	1
LeftShoulder	0	0	0	0	0	0	1
LeftArm	0	0	0	0	0	0	1
LeftForeArm	0	0	0	0	0	0	1
LeftHand	0	0	0	0	0	0	1
RightShoulder	0	0	0	0	-0	180	1
RightArm	0	0	0	0	-0	180	1
RightForeArm	0	0	0	0	-0	180	1
RightHand	0	0	0	0	-0	180	1
LeftUpLeg	0	0	0	0	-0	-90	1
LeftLeg	0	0	0	0	-0	-90	1
LeftFoot	0	0	0	66.57146043	-66.57146043	-90	1
LeftToeBase	0	0	0	0	-90	0	1
RightUpLeg	0	0	0	0	-0	-90	1
RightLeg	0	0	0	0	-0	-90	1
RightFoot	0	0	0	66.57146043	-66.57146043	-90	1
RightToeBase	0	0	0	0	-90	0	1
[reference]
19	0	0	0	0	-0	0	1.0
20	0	0	0	0	-0	0	1.0
21	0	0	0	0	-0	0	1.0
22	0	0	0	0	-0	0	1.0
23	0	0	0	0	-0	0	1.0
24	0	0	0	0	-0	0	1.0
25	0	0	0	0	-0	0	1.0
26	0	0	0	0	-0	0	1.0
[Hips]
19	7.194415092	8.145970345	4.387169838	4.074539185	-112.6456528	0.08644104004	1.0
20	7.124660492	8.124492645	4.266174316	0.8876197338	-113.8179321	2.495498896	1.0
21	7.07064724	8.108791351	4.144317627	-1.050629139	-115.2794342	4.111838341	1.0
22	7.00296402	8.097175598	4.025856018	-1.973004341	-116.5047531	4.588042259	1.0
23	6.896143436	8.099716187	3.918622017	-1.732679009	-117.8227844	4.030452728	1.0
24	6.766206741	8.200967789	3.811399698	-0.2642909884	-119.5554123	2.073940039	1.0
25	6.628439903	8.222877502	3.703800201	0.8837432861	-121.2033539	0.8929901123	1.0
26	6.481427193	8.230567932	3.591498852	0.4225321412	-122.5544586	1.721082211	1.0
[Spine]
19	0	0.7457100153	0	-6.644952297	0.2926527262	-90.43595123	1.0
20	0	0.7457100153	0	-6.05169487	1.001116991	-89.47952271	1.0
21	0	0.7457100153	0	-5.602143288	1.960859895	-88.93052673	1.0
22	0	0.7457100153	0	-5.081040382	2.791794538	-88.6769104	1.0
23	0	0.7457100153	0	-4.956562042	3.646522999	-88.67289734	1.0
24	0	0.7457100153	0	-4.513978958	4.61421442	-89.09022522	1.0
25	0	0.7457100153	0	-4.246489048	5.504268169	-89.31329346	1.0
26	0	0.7457100153	0	-4.228707314	6.053785801	-88.45294189	1.0
[Spine1]
19	0	2.140589952	0	8.936935425	0.1562636495	-0.6354115605	1.0
20	0	2.140589952	0	9.348824501	0.3561733067	-0.3081859052	1.0
21	0	2.140589952	0	10.14292622	0.6208434701	0.1726048738	1.0
22	0	2.140589952	0	10.34286213	0.8780562878	0.4389924109	1.0
23	0	2.140589952	0	10.64647865	1.136308312	0.501516819	1.0
24	0	2.140589952	0	10.23290825	1.50622952	0.2660981715	1.0
25	0	2.140589952	0	9.296266556	1.828658104	-0.02766565233	1.0
26	0	2.140589952	0	8.491484642	2.005647182	-0.2061467469	1.0
[Neck]
19	0	2.32246995	0	-17.18354607	7.172783852	-90.25273132	1.0
20	0	2.32246995	0	-16.81495285	7.495531082	-90.18162537	1.0
21	0	2.32246995	0	-16.82859993	7.293076515	-90.09823608	1.0
22	0	2.32246995	0	-16.94845772	6.474834919	-89.89596558	1.0
23	0	2.32246995	0	-17.08888245	5.73431778	-89.75237274	1.0
24	0	2.32246995	0	-17.19340515	5.283456326	-89.69711304	1.0
25	0	2.32246995	0	-17.26837921	5.160381794	-89.74258423	1.0
26	0	2.32246995	0	-17.46095657	5.451202393	-89.95343018	1.0
[Head]
19	0	1.409579992	0.1818799973	-9.486520767	0.2974924445	-95.33312988	1.0
20	0	1.409579992	0.1818799973	-10.3107481	0.2583297193	-96.28211212	1.0
21	0	1.409579992	0.1818799973	-11.34034157	0.1524286866	-96.7853241	1.0
22	0	1.409579992	0.1818799973	-11.19410419	0.1395299435	-96.95314026	1.0
23	0	1.409579992	0.1818799973	-10.70288277	0.2047195137	-97.2026062	1.0
24	0	1.409579992	0.1818799973	-9.904671669	0.2684191465	-97.24597168	1.0
25	0	1.409579992	0.1818799973	-8.653374672	0.3880460262	-97.5947876	1.0
26	0	1.409579992	0.1818799973	-7.438976288	0.5606099963	-98.20529175	1.0
[LeftShoulder]
19	0.3668199778	1.946700096	-0.02662999928	-15.13653374	-12.06714344	-1.731866598	1.0
20	0.3668199778	1.946700096	-0.02662999928	-14.90968227	-12.0811758	-1.852784514	1.0
21	0.3668199778	1.946700096	-0.02662999928	-14.55908489	-12.25311947	-1.820191979	1.0
22	0.3668199778	1.946700096	-0.02662999928	-14.16579533	-12.23708248	-1.516073704	1.0
23	0.3668199778	1.946700096	-0.02662999928	-13.40980721	-12.10199451	-1.641154051	1.0
24	0.3668199778	1.946700096	-0.02662999928	-12.41647339	-11.92546844	-1.190967679	1.0
25	0.3668199778	1.946700096	-0.02662999928	-10.83162022	-11.70440292	-0.7569973469	1.0
26	0.3668199778	1.946700096	-0.02662999928	-9.07380867	-11.43805981	-0.2916636467	1.0
[LeftArm]
19	1.140689969	0	0	43.44432831	16.69249725	-76.81646729	1.0
20	1.140689969	0	0	39.96714783	17.01922989	-76.46870422	1.0
21	1.140689969	0	0	39.9731369	17.54440117	-76.21401215	1.0
22	1.140689969	0	0	37.36299896	18.66134644	-75.56916046	1.0
23	1.140689969	0	0	34.74754715	20.13379478	-74.64427948	1.0
24	1.140689969	0	0	31.1137619	22.02142334	-74.15483856	1.0
25	1.140689969	0	0	27.62881088	23.60716248	-73.53265381	1.0
26	1.140689969	0	0	23.7998848	24.84104919	-72.99046326	1.0
[LeftForeArm]
19	2.749800205	0	0	-15.39894581	-14.20865917	3.17412734	1.0
20	2.749800205	0	0	-14.72648811	-13.94695473	2.275251865	1.0
21	2.749800205	0	0	-15.40975475	-13.53224564	2.272501945	1.0
22	2.749800205	0	0	-13.49012756	-13.0255928	0.484719336	1.0
23	2.749800205	0	0	-12.26209927	-11.82956696	-1.243981957	1.0
24	2.749800205	0	0	-11.11700916	-10.33937073	-2.909117699	1.0
25	2.749800205	0	0	-9.948088646	-9.240610123	-4.455178738	1.0
26	2.749800205	0	0	-8.351945877	-8.336029053	-5.76576376	1.0
[LeftHand]
19	2.295179844	0	0	-14.99135303	-4.378465652	-0.310258925	1.0
20	2.295179844	0	0	-14.45994854	-4.190976143	0.3230474591	1.0
21	2.295179844	0	0	-15.18841076	-3.867394447	1.451530218	1.0
22	2.295179844	0	0	-13.46557236	-4.169540405	0.8482861519	1.0
23	2.295179844	0	0	-12.3941803	-3.957376242	0.09760630131	1.0
24	2.295179844	0	0	-11.35435963	-3.202563286	-0.927526176	1.0
25	2.295179844	0	0	-10.29265404	-2.216253757	-0.8098629713	1.0
26	2.295179844	0	0	-8.730237961	-2.12065053	-2.281536341	1.0
[RightShoulder]
19	-0.3601199985	1.946700096	-0.02662999928	-6.642877102	3.619441748	173.4483795	1.0
20	-0.3601199985	1.946700096	-0.02662999928	-6.699165344	4.264492035	173.8520813	1.0
21	-0.3601199985	1.946700096	-0.02662999928	-6.958625317	5.038075924	174.0275574	1.0
22	-0.3601199985	1.946700096	-0.02662999928	-7.051384926	5.303030014	174.083786	1.0
23	-0.3601199985	1.946700096	-0.02662999928	-7.155968666	5.327705383	174.0706635	1.0
24	-0.3601199985	1.946700096	-0.02662999928	-7.133778572	5.163539886	173.8592529	1.0
25	-0.3601199985	1.946700096	-0.02662999928	-6.967256546	5.172454834	173.619339	1.0
26	-0.3601199985	1.946700096	-0.02662999928	-6.593733788	5.290112019	173.4081116	1.0
[RightArm]
19	-1.140689969	0	0	63.01755524	0.8080201745	-94.15621948	1.0
20	-1.140689969	0	0	64.39938354	2.209685326	-94.83499908	1.0
21	-1.140689969	0	0	66.18198395	4.153958797	-95.29703522	1.0
22	-1.140689969	0	0	68.01743317	5.941114426	-95.40985107	1.0
23	-1.140689969	0	0	69.14962769	7.434461594	-95.46694946	1.0
24	-1.140689969	0	0	69.94927979	8.301582336	-95.06091309	1.0
25	-1.140689969	0	0	70.62791443	8.47394371	-94.93601227	1.0
26	-1.140689969	0	0	71.00601196	8.716525078	-95.30943298	1.0
[RightForeArm]
19	-2.749800205	0	0	0.216988802	15.64335632	177.9431763	1.0
20	-2.749800205	0	0	1.12162745	16.03380966	178.5370483	1.0
21	-2.749800205	0	0	2.293711424	16.60311317	179.0854034	1.0
22	-2.749800205	0	0	3.139557838	18.02500725	178.9771729	1.0
23	-2.749800205	0	0	3.463092089	20.4197464	178.52211	1.0
24	-2.749800205	0	0	3.594225883	23.57102966	177.4741516	1.0
25	-2.749800205	0	0	2.940421343	27.63806915	175.3448944	1.0
26	-2.749800205	0	0	1.638700604	32.41250992	172.7532501	1.0
[RightHand]
19	-2.295179844	0	0	0.06508389115	9.043143272	174.5046387	1.0
20	-2.295179844	0	0	0.8806300759	9.416782379	174.5765381	1.0
21	-2.295179844	0	0	1.896829605	9.710702896	173.7606659	1.0
22	-2.295179844	0	0	2.709203482	10.23176956	173.3790741	1.0
23	-2.295179844	0	0	3.061135292	11.16257477	173.1963959	1.0
24	-2.295179844	0	0	3.366373301	11.95815468	172.8114166	1.0
25	-2.295179844	0	0	3.249237299	12.95564175	172.6390991	1.0
26	-2.295179844	0	0	2.887270927	13.99277496	172.9961853	1.0
[LeftUpLeg]
19	0.9094099998	0	0	-3.792515278	6.296105385	91.16028595	1.0
20	0.9094099998	0	0	-10.16490746	6.643930912	92.91127777	1.0
21	0.9094099998	0	0	-18.43299675	5.528227329	95.82232666	1.0
22	0.9094099998	0	0	-25.63827705	5.760017872	97.12304688	1.0
23	0.9094099998	0	0	-30.20993423	6.612195015	96.06429291	1.0
24	0.9094099998	0	0	-31.43400192	4.937996864	94.64852142	1.0
25	0.9094099998	0	0	-30.06768417	1.860407472	94.04066467	1.0
26	0.9094099998	0	0	-25.83645248	-0.06676183641	93.32203674	1.0
[LeftLeg]
19	0	-4.498080254	0	30.98702812	-6.909930706	81.74772644	1.0
20	0	-4.498080254	0	49.49307251	-7.719116688	75.02048492	1.0
21	0	-4.498080254	0	68.71389008	-8.104941368	54.59234619	1.0
22	0	-4.498080254	0	79.1204071	-4.843019009	38.76867294	1.0
23	0	-4.498080254	0	82.1609726	-5.40028286	31.89050484	1.0
24	0	-4.498080254	0	76.3228302	-10.18109131	36.38557053	1.0
25	0	-4.498080254	0	61.23595047	-15.22591209	49.79650497	1.0
26	0	-4.498080254	0	37.17710495	-15.05355549	69.72019196	1.0
[LeftFoot]
19	0	-3.729400158	0	-80.44348145	108.3690186	-7.900867939	1.0
20	0	-3.729400158	0	-60.14042664	109.4412842	10.31937599	1.0
21	0	-3.729400158	0	-40.668396	127.0846863	22.27505493	1.0
22	0	-3.729400158	0	-35.93386078	142.1307678	18.6552124	1.0
23	0	-3.729400158	0	-34.85548019	145.7344971	20.56720734	1.0
24	0	-3.729400158	0	-36.409832	141.8278809	21.40908241	1.0
25	0	-3.729400158	0	-39.86793518	133.092514	21.40518188	1.0
26	0	-3.729400158	0	-49.80014038	115.7301941	9.663326263	1.0
[LeftToeBase]
19	0	-0.5911099911	1.364109993	0	0	0	1.0
20	0	-0.5911099911	1.364109993	0	0	0	1.0
21	0	-0.5911099911	1.364109993	0	0	0	1.0
22	0	-0.5911099911	1.364109993	0	0	0	1.0
23	0	-0.5911099911	1.364109993	0	0	0	1.0
24	0	-0.5911099911	1.364109993	0	0	0	1.0
25	0	-0.5911099911	1.364109993	0	0	0	1.0
26	0	-0.5911099911	1.364109993	0	0	0	1.0
[RightUpLeg]
19	-0.9094099998	0	0	-14.96735859	-13.42054462	99.11483765	1.0
20	-0.9094099998	0	0	-13.56834888	-10.27515793	99.83717346	1.0
21	-0.9094099998	0	0	-11.77080345	-9.517788887	100.5577393	1.0
22	-0.9094099998	0	0	-9.19797802	-9.920532227	100.3877792	1.0
23	-0.9094099998	0	0	-5.576051712	-9.177556992	99.42233276	1.0
24	-0.9094099998	0	0	-0.5659143925	-7.451182365	97.69791412	1.0
25	-0.9094099998	0	0	4.319644451	-6.782943249	95.71553802	1.0
26	-0.9094099998	0	0	8.63313961	-7.677744389	94.47460175	1.0
[RightLeg]
19	0	-4.498080254	0	35.26023102	-5.739400864	76.0748291	1.0
20	0	-4.498080254	0	36.44665146	-4.487013817	77.68440247	1.0
21	0	-4.498080254	0	35.79584122	-5.174698353	77.97603607	1.0
22	0	-4.498080254	0	33.25388336	-1.239527225	82.44030762	1.0
23	0	-4.498080254	0	28.41182518	-0.6653386354	84.87661743	1.0
24	0	-4.498080254	0	20.57562447	-1.160458088	86.64842224	1.0
25	0	-4.498080254	0	12.22132587	-0.7182536721	89.60962677	1.0
26	0	-4.498080254	0	5.057452679	1.478869677	92.20562744	1.0
[RightFoot]
19	0	-3.729400158	0	41.17079163	64.66240692	107.9889984	1.0
20	0	-3.729400158	0	33.40412903	64.37754059	101.1979523	1.0
21	0	-3.729400158	0	33.6373558	65.48591614	102.8786087	1.0
22	0	-3.729400158	0	21.81493759	65.4434967	90.89463806	1.0
23	0	-3.729400158	0	18.31775665	65.98812866	86.44517517	1.0
24	0	-3.729400158	0	19.63431549	66.77799988	84.86361694	1.0
25	0	-3.729400158	0	22.11026192	67.85070801	83.20729828	1.0
26	0	-3.729400158	0	26.51233864	68.31895447	83.69792938	1.0
[RightToeBase]
19	0	-0.5911099911	1.364109993	0	0	0	1.0
20	0	-0.5911099911	1.364109993	0	0	0	1.0
21	0	-0.5911099911	1.364109993	0	0	0	1.0
22	0	-0.5911099911	1.364109993	0	0	0	1.0
23	0	-0.5911099911	1.364109993	0	0	0	1.0
24	0	-0.5911099911	1.364109993	0	0	0	1.0
25	0	-0.5911099911	1.364109993	0	0	0	1.0
26	0	-0.5911099911	1.364109993	0	0	0	1.0
[EndOfFile]
